<svg width="204" height="157" viewBox="0 0 204 157" fill="none" xmlns="http://www.w3.org/2000/svg">
<path d="M17.1092 128.739H7.76088V133.501H16.9328V138.934H7.76088V148H2.1166V123.306H17.1092V128.739ZM33.0731 130.362H38.3646V148H33.0731V146.342C31.9089 147.683 30.1804 148.494 27.8168 148.494C23.1956 148.494 19.3857 144.437 19.3857 139.181C19.3857 133.925 23.1956 129.868 27.8168 129.868C30.1804 129.868 31.9089 130.679 33.0731 132.02V130.362ZM28.8751 143.485C31.3092 143.485 33.0731 141.827 33.0731 139.181C33.0731 136.535 31.3092 134.877 28.8751 134.877C26.441 134.877 24.6772 136.535 24.6772 139.181C24.6772 141.827 26.441 143.485 28.8751 143.485ZM47.0837 135.512C47.0837 137.523 55.7618 136.182 55.7618 142.708C55.7618 146.765 52.2341 148.494 48.4242 148.494C44.8965 148.494 42.2155 147.153 40.8397 144.296L45.4257 141.685C45.8843 143.026 46.872 143.767 48.4242 143.767C49.6942 143.767 50.3292 143.379 50.3292 142.673C50.3292 140.733 41.6511 141.756 41.6511 135.653C41.6511 131.808 44.8965 129.868 48.5653 129.868C51.4227 129.868 53.9627 131.138 55.4443 133.642L50.9289 136.076C50.435 135.159 49.7295 134.524 48.5653 134.524C47.6481 134.524 47.0837 134.877 47.0837 135.512ZM68.223 135.441H64.5895V141.685C64.5895 143.202 65.8948 143.343 68.223 143.202V148C61.3088 148.706 59.298 146.624 59.298 141.685V135.441H56.4759V130.362H59.298V127.01L64.5895 125.423V130.362H68.223V135.441Z" fill="#3A63DF"/>
<path d="M77.3842 142.567H86.2034V148H71.7399V123.306H77.3842V142.567ZM101.146 130.362H106.438V148H101.146V146.342C99.982 147.683 98.2535 148.494 95.8899 148.494C91.2687 148.494 87.4588 144.437 87.4588 139.181C87.4588 133.925 91.2687 129.868 95.8899 129.868C98.2535 129.868 99.982 130.679 101.146 132.02V130.362ZM96.9482 143.485C99.3823 143.485 101.146 141.827 101.146 139.181C101.146 136.535 99.3823 134.877 96.9482 134.877C94.5141 134.877 92.7503 136.535 92.7503 139.181C92.7503 141.827 94.5141 143.485 96.9482 143.485ZM121.714 130.362H127.006V148H121.714V146.342C120.762 147.647 118.998 148.494 116.67 148.494C113.107 148.494 110.073 145.954 110.073 141.192V130.362H115.364V140.415C115.364 142.603 116.74 143.626 118.433 143.626C120.374 143.626 121.714 142.497 121.714 139.992V130.362ZM141.222 129.868C144.785 129.868 147.819 132.408 147.819 137.17V148H142.528V137.946C142.528 135.759 141.152 134.736 139.459 134.736C137.518 134.736 136.178 135.865 136.178 138.369V148H130.886V130.362H136.178V132.02C137.13 130.714 138.894 129.868 141.222 129.868ZM164.258 123.306H169.55V148H164.258V146.342C163.094 147.683 161.366 148.494 159.002 148.494C154.381 148.494 150.571 144.437 150.571 139.181C150.571 133.925 154.381 129.868 159.002 129.868C161.366 129.868 163.094 130.679 164.258 132.02V123.306ZM160.061 143.485C162.495 143.485 164.258 141.827 164.258 139.181C164.258 136.535 162.495 134.877 160.061 134.877C157.626 134.877 155.863 136.535 155.863 139.181C155.863 141.827 157.626 143.485 160.061 143.485ZM178.724 133.501C179.429 131.138 181.793 130.009 184.015 130.009V136.006C181.828 135.653 178.724 136.535 178.724 140.027V148H173.432V130.362H178.724V133.501ZM197.945 130.362H203.59L197.557 147.471C195.582 153.08 192.442 155.302 187.503 155.055V150.117C189.973 150.117 191.137 149.341 191.913 147.189L184.893 130.362H190.714L194.629 141.156L197.945 130.362Z" fill="#2ADD7B"/>
<path d="M103.941 67.0171C90.9237 67.0171 80.3709 56.4648 80.3709 43.4468C80.3709 30.4301 90.9237 19.8766 103.941 19.8766C116.959 19.8766 127.511 30.4301 127.511 43.4468C127.511 56.4648 116.959 67.0171 103.941 67.0171ZM103.941 17.3801C89.5445 17.3801 77.8736 29.0505 77.8736 43.4468C77.8736 57.8444 89.5445 69.5148 103.941 69.5148C118.339 69.5148 130.009 57.8444 130.009 43.4468C130.009 29.0505 118.339 17.3801 103.941 17.3801Z" fill="#80CC28"/>
<path d="M118.907 56.8759C122.158 53.2565 124.114 48.4511 124.047 43.1867C123.91 32.2851 114.988 23.416 104.085 23.3395C92.9135 23.2618 83.8329 32.2938 83.8329 43.4471C83.8329 50.2701 87.231 56.2984 92.4268 59.9339C100.262 65.4155 111.266 61.9528 114.266 52.8727C114.303 52.7579 114.34 52.6431 114.375 52.5284C116.499 45.5523 113.297 38.2246 107.103 34.9124C108.065 35.0086 109.034 35.1999 109.995 35.4924C117.931 37.9074 122.407 46.3002 119.992 54.2375C119.708 55.1668 119.343 56.0479 118.907 56.8759Z" fill="#0059D6"/>
<path d="M71.5949 4.65092C73.8062 4.65092 75.5987 6.44276 75.5987 8.65417C75.5987 10.8656 73.8062 12.6574 71.5949 12.6574C69.3838 12.6574 67.5913 10.8656 67.5913 8.65417C67.5913 6.44276 69.3838 4.65092 71.5949 4.65092ZM84.1522 4.65092C86.3634 4.65092 88.1558 6.44276 88.1558 8.65417C88.1558 10.8656 86.3634 12.6574 84.1522 12.6574C81.941 12.6574 80.1483 10.8656 80.1483 8.65417C80.1483 6.44276 81.941 4.65092 84.1522 4.65092ZM134.064 43.4468C134.064 60.0571 120.551 73.5699 103.941 73.5699C87.3315 73.5699 73.8186 60.0571 73.8186 43.4468C73.8186 26.8378 87.3315 13.325 103.941 13.325C120.551 13.325 134.064 26.8378 134.064 43.4468ZM125.723 6.86604C126.71 6.86604 127.511 7.66694 127.511 8.65417C127.511 9.64141 126.71 10.4423 125.723 10.4423C124.736 10.4423 123.935 9.64141 123.935 8.65417C123.935 7.66694 124.736 6.86604 125.723 6.86604ZM131.081 6.86604C132.069 6.86604 132.869 7.66694 132.869 8.65417C132.869 9.64141 132.069 10.4423 131.081 10.4423C130.094 10.4423 129.293 9.64141 129.293 8.65417C129.293 7.66694 130.094 6.86604 131.081 6.86604ZM136.44 6.86604C137.428 6.86604 138.228 7.66694 138.228 8.65417C138.228 9.64141 137.428 10.4423 136.44 10.4423C135.452 10.4423 134.651 9.64141 134.651 8.65417C134.651 7.66694 135.452 6.86604 136.44 6.86604ZM68.0735 77.7742C69.3806 78.3876 70.5143 79.2205 71.4519 80.2078C74.1313 77.8767 78.0352 77.2029 81.4573 78.8084C83.2932 79.6685 84.7121 81.0568 85.6226 82.7067C88.8212 80.4225 93.1256 79.8857 96.9369 81.6738C99.7908 83.0128 101.818 85.3969 102.778 88.1563C105.935 87.0185 109.367 87.5331 112.015 89.3409C112.814 87.8218 114.079 86.531 115.735 85.7116C118.82 84.1851 122.387 84.7231 124.872 86.7951C125.706 85.8782 126.723 85.0983 127.901 84.5146C129.519 83.7137 131.245 83.3805 132.927 83.4619C131.953 78.9811 134.097 74.2424 138.394 72.1149C140.96 70.8451 143.801 70.7513 146.306 71.625V7.94089C146.306 3.55509 142.75 -0.000190735 138.365 -0.000190735H69.5174C65.1321 -0.000190735 61.5771 3.55509 61.5771 7.94089V77.3263C64.5286 76.7796 66.968 77.2559 68.0735 77.7742Z" fill="#3A63DF"/>
<path d="M151.051 88.4131C147.916 89.9643 144.219 89.1116 142.051 86.5633C141.354 87.5752 140.397 88.4292 139.217 89.0129C138.038 89.5966 136.778 89.8397 135.551 89.7805C136.263 93.0494 134.698 96.506 131.564 98.0572C130.325 98.6705 128.998 98.9075 127.712 98.8137C128.344 102.037 126.781 105.412 123.694 106.939C121.991 107.781 120.123 107.915 118.424 107.452C118.018 107.774 117.572 108.059 117.088 108.299C114.527 109.566 111.59 109.228 109.418 107.67C108.787 107.833 108.134 107.921 107.475 107.93C106.805 108.797 105.931 109.53 104.883 110.05C101.185 111.88 96.7053 110.367 94.8757 106.67C94.8074 106.531 94.7454 106.393 94.6866 106.252C93.2822 106.383 91.8257 106.153 90.4567 105.51C89.921 105.259 89.4253 104.957 88.9723 104.612C87.1174 105.159 85.0629 105.057 83.1742 104.171C79.7514 102.565 77.9568 98.8963 78.5759 95.3435C77.167 95.4756 75.7052 95.246 74.3313 94.6019C70.8548 92.9705 69.0577 89.2128 69.7639 85.6069C68.4175 85.7007 67.0295 85.4625 65.7209 84.8492C64.4127 84.2359 63.3424 83.3202 62.5536 82.2256C60.2328 85.0726 56.1938 86.0944 52.7174 84.463C50.3131 83.335 48.7135 81.189 48.188 78.7802C47.3884 82.4379 49.1848 86.2918 52.7174 87.9491C56.1938 89.5793 60.2328 88.5588 62.5536 85.7106C63.3424 86.8064 64.4127 87.7221 65.7209 88.3354C67.0295 88.9487 68.4175 89.1869 69.7639 89.0931C69.0577 92.6977 70.8548 96.4566 74.3313 98.088C75.7052 98.7322 77.167 98.9617 78.5759 98.8297C77.9568 102.383 79.7514 106.05 83.1742 107.657C85.0629 108.542 87.1174 108.645 88.9723 108.099C89.4253 108.442 89.921 108.744 90.4567 108.996C91.8257 109.639 93.2822 109.868 94.6866 109.739C94.7454 109.878 94.8074 110.018 94.8757 110.156C96.7053 113.852 101.185 115.366 104.883 113.536C105.931 113.016 106.805 112.283 107.475 111.414C108.134 111.407 108.787 111.319 109.418 111.157C111.59 112.714 114.527 113.052 117.088 111.785C117.572 111.545 118.018 111.26 118.424 110.938C120.123 111.401 121.991 111.268 123.694 110.425C126.781 108.898 128.344 105.523 127.712 102.3C128.998 102.394 130.325 102.157 131.564 101.543C134.698 99.9922 136.263 96.5356 135.551 93.2666C136.778 93.3259 138.038 93.0828 139.217 92.4991C140.397 91.9154 141.354 91.0614 142.051 90.0482C144.219 92.5978 147.916 93.4505 151.051 91.8981C154.236 90.3222 155.798 86.778 155 83.4622C154.5 85.5403 153.116 87.3901 151.051 88.4131Z" fill="#3A63DF"/>
<path d="M109.806 103.499C109.806 104.726 108.812 105.721 107.586 105.721C106.36 105.721 105.365 104.726 105.365 103.499C105.365 102.273 106.36 101.279 107.586 101.279C108.812 101.279 109.806 102.273 109.806 103.499Z" fill="#3A63DF"/>
<path d="M146.306 80.2314C146.306 81.458 145.311 82.4526 144.084 82.4526C142.858 82.4526 141.864 81.458 141.864 80.2314C141.864 79.0047 142.858 78.0113 144.084 78.0113C145.311 78.0113 146.306 79.0047 146.306 80.2314Z" fill="#3A63DF"/>
<path d="M157.033 77.1932C157.033 78.4186 156.04 79.4132 154.813 79.4132C153.587 79.4132 152.593 78.4186 152.593 77.1932C152.593 75.9665 153.587 74.9719 154.813 74.9719C156.04 74.9719 157.033 75.9665 157.033 77.1932Z" fill="#3A63DF"/>
<path d="M55.1117 71.3499C55.1117 72.5753 54.1176 73.5699 52.8912 73.5699C51.6648 73.5699 50.6707 72.5753 50.6707 71.3499C50.6707 70.1233 51.6648 69.1286 52.8912 69.1286C54.1176 69.1286 55.1117 70.1233 55.1117 71.3499Z" fill="#3A63DF"/>
<path d="M57.3863 80.609C57.3863 81.6185 56.5679 82.4366 55.5583 82.4366C54.5487 82.4366 53.7302 81.6185 53.7302 80.609C53.7302 79.5996 54.5487 78.7802 55.5583 78.7802C56.5679 78.7802 57.3863 79.5996 57.3863 80.609Z" fill="#3A63DF"/>
<path d="M103.431 106.13C103.431 107.14 102.612 107.958 101.603 107.958C100.593 107.958 99.7748 107.14 99.7748 106.13C99.7748 105.121 100.593 104.303 101.603 104.303C102.612 104.303 103.431 105.121 103.431 106.13Z" fill="#3A63DF"/>
<path d="M123.72 101.279C123.72 102.289 122.902 103.107 121.893 103.107C120.883 103.107 120.065 102.289 120.065 101.279C120.065 100.27 120.883 99.4505 121.893 99.4505C122.902 99.4505 123.72 100.27 123.72 101.279Z" fill="#3A63DF"/>
<path d="M93.8813 100.203C93.8813 101.213 93.0628 102.031 92.0533 102.031C91.0436 102.031 90.2253 101.213 90.2253 100.203C90.2253 99.1938 91.0436 98.3744 92.0533 98.3744C93.0628 98.3744 93.8813 99.1938 93.8813 100.203Z" fill="#3A63DF"/>
<path d="M131.168 94.8585C131.168 95.868 130.35 96.6862 129.339 96.6862C128.329 96.6862 127.511 95.868 127.511 94.8585C127.511 93.8491 128.329 93.0309 129.339 93.0309C130.35 93.0309 131.168 93.8491 131.168 94.8585Z" fill="#3A63DF"/>
<path d="M157.033 68.846C157.033 69.8554 156.215 70.6736 155.206 70.6736C154.196 70.6736 153.378 69.8554 153.378 68.846C153.378 67.8365 154.196 67.0171 155.206 67.0171C156.215 67.0171 157.033 67.8365 157.033 68.846Z" fill="#3A63DF"/>
<path d="M77.1737 89.9038C77.1737 90.6306 76.5846 91.2192 75.8582 91.2192C75.1317 91.2192 74.5427 90.6306 74.5427 89.9038C74.5427 89.1781 75.1317 88.5883 75.8582 88.5883C76.5846 88.5883 77.1737 89.1781 77.1737 89.9038Z" fill="#3A63DF"/>
<path d="M86.9007 98.6482C86.9007 99.3739 86.3118 99.9637 85.5853 99.9637C84.8587 99.9637 84.2698 99.3739 84.2698 98.6482C84.2698 97.9214 84.8587 97.3328 85.5853 97.3328C86.3118 97.3328 86.9007 97.9214 86.9007 98.6482Z" fill="#3A63DF"/>
<path d="M150.43 84.1445C150.43 84.8713 149.84 85.46 149.114 85.46C148.388 85.46 147.799 84.8713 147.799 84.1445C147.799 83.4176 148.388 82.829 149.114 82.829C149.84 82.829 150.43 83.4176 150.43 84.1445Z" fill="#3A63DF"/>
<path d="M152.593 60.4632C152.593 61.19 152.003 61.7787 151.278 61.7787C150.551 61.7787 149.962 61.19 149.962 60.4632C149.962 59.7376 150.551 59.1477 151.278 59.1477C152.003 59.1477 152.593 59.7376 152.593 60.4632Z" fill="#3A63DF"/>
<path d="M57.7426 63.0942C57.7426 63.821 57.1536 64.4097 56.4273 64.4097C55.7006 64.4097 55.1116 63.821 55.1116 63.0942C55.1116 62.3686 55.7006 61.7787 56.4273 61.7787C57.1536 61.7787 57.7426 62.3686 57.7426 63.0942Z" fill="#3A63DF"/>
<path d="M116.866 104.815C116.866 105.541 116.277 106.13 115.551 106.13C114.824 106.13 114.235 105.541 114.235 104.815C114.235 104.088 114.824 103.499 115.551 103.499C116.277 103.499 116.866 104.088 116.866 104.815Z" fill="#3A63DF"/>
</svg>
